<svg xmlns="http://www.w3.org/2000/svg" viewBox="0 0 71.58 78.69">
  <polygon points="0 0 71.58 0 65.37 70.41 35.79 78.69 6.51 71 0 0" fill="#e34f26"/>
  <polygon points="34.8 5.52 63.99 5.52 58.86 64.68 34.8 71.39 34.8 5.52" fill="#f1732d"/>
  <path d="M55.71,40,36.38,59.37a2.24,2.24,0,0,1-3.16,0L13.89,40a2.24,2.24,0,0,1,0-3.16L27.71,23.06l6.16,6.16v15a2.66,2.66,0,1,0,1.87,0V31.1l3.49,3.48A2.67,2.67,0,1,0,41.67,33a2.78,2.78,0,0,0-1.12.25L29,21.73l4.18-4.19a2.24,2.24,0,0,1,3.16,0L55.71,36.87A2.22,2.22,0,0,1,55.71,40Z" fill="#e5e5e4"/>
</svg>
