<svg xmlns="http://www.w3.org/2000/svg" viewBox="0 0 71.58 78.69">
  <title>Asset 1</title>
    <polygon points="0 0 71.58 0 65.37 70.41 35.79 78.69 6.51 71 0 0" fill="#f0d73b"/>
    <polygon points="35.77 5.04 64.96 5.04 59.83 64.2 35.77 70.91 35.77 5.04" fill="#f6e596"/>
    <path d="M25.8,23.63h5.26V38.37c0,6.64-3.18,9-8.27,9a13.91,13.91,0,0,1-3.87-.55l.58-4.26a8.8,8.8,0,0,0,2.7.42c2.22,0,3.6-1,3.6-4.6Z" fill="#473f53"/>
    <path d="M40,41.29a12.74,12.74,0,0,0,5.61,1.4c2.32,0,3.55-1,3.55-2.46S48.08,38,45.39,37.12c-3.72-1.33-6.17-3.39-6.17-6.67,0-3.82,3.22-6.7,8.46-6.7a13,13,0,0,1,5.7,1.13l-1.13,4a10.43,10.43,0,0,0-4.64-1.06c-2.19,0-3.25,1-3.25,2.16,0,1.42,1.23,2.05,4.15,3.18,3.94,1.46,5.77,3.52,5.77,6.7,0,3.75-2.85,6.93-9,6.93A14.49,14.49,0,0,1,39,45.44Z" fill="#473f53"/>
</svg>
