<svg xmlns="http://www.w3.org/2000/svg" viewBox="0 0 71.58 78.69">
  <title>wordpress</title>
  <g id="Layer_2" data-name="Layer 2">
    <g id="Layer_1-2" data-name="Layer 1">
      <g>
        <polygon points="0 0 71.58 0 65.37 70.41 35.79 78.69 6.51 71 0 0" fill="#20759a"/>
        <polygon points="35.77 5.04 64.96 5.04 59.83 64.2 35.77 70.91 35.77 5.04" fill="#464443"/>
        <g>
          <path d="M54.64,30.45a26.64,26.64,0,0,0-1.51,3.84L44.6,58A22.18,22.18,0,0,0,55.55,29.26,5.69,5.69,0,0,0,54.64,30.45Z" fill="#fff"/>
          <path d="M25.05,27.54v.84h-.57a3,3,0,0,0-1.94.56,1.67,1.67,0,0,0-.66,1.33A15.35,15.35,0,0,0,22.93,34L29.3,51.46l5.37-14.87-1-2.62L33,31.88a11,11,0,0,0-1.13-2,2.82,2.82,0,0,0-.76-.74,4.49,4.49,0,0,0-1.2-.6,5.41,5.41,0,0,0-1.43-.14v-.84H41.05v.84h-.86a2.9,2.9,0,0,0-2,.56,1.89,1.89,0,0,0-.62,1.49,14.2,14.2,0,0,0,1.08,4.09l6.2,16.94,6.16-17.17a14,14,0,0,0,1.05-3.95,1.63,1.63,0,0,0-.34-1,1.78,1.78,0,0,0-.87-.64,7.11,7.11,0,0,0-2.37-.33v-.84h6.2a22.17,22.17,0,0,0-39.11,0Z" fill="#fff"/>
          <path d="M18,33.53c-.72-1.93-1.17-3.07-1.36-3.42a3.08,3.08,0,0,0-1.3-1.3L15,28.69a22.16,22.16,0,0,0,12.28,30Z" fill="#fff"/>
          <path d="M35.77,39.49,28.55,59.13a22.19,22.19,0,0,0,14.35-.38Z" fill="#fff"/>
        </g>
      </g>
    </g>
  </g>
</svg>
