<svg xmlns="http://www.w3.org/2000/svg" viewBox="0 0 72.58 79.78">
  <title>php</title>
  <g id="Layer_2" data-name="Layer 2">
    <g id="Layer_1-2" data-name="Layer 1">
      <g>
        <polygon points="0 0 72.58 0 66.28 71.39 36.29 79.78 6.6 71.98 0 0" fill="#5868a5"/>
        <polygon points="35.29 5.6 64.88 5.6 59.68 65.58 35.29 72.38 35.29 5.6" fill="#8798cb"/>
        <g>
          <path d="M9.94,22.78l1.15,14.43h8v9.62l4.59.6V22.78Zm4.6,4.81h4.59V32.4h-4Z" fill="#f4f5f5"/>
          <path d="M46.69,22.78V47.43l4.59-.6V37.21h8l1.15-14.43ZM55.3,32.4h-4V27.59h4.6Z" fill="#f4f5f5"/>
          <polygon points="27.17 22.78 28.32 46.83 32.91 47.43 32.91 37.21 37.5 37.21 37.5 47.43 42.1 46.83 43.24 22.78 37.5 22.78 37.5 32.4 32.91 32.4 32.91 22.78 27.17 22.78" fill="#f4f5f5"/>
        </g>
      </g>
    </g>
  </g>
</svg>
