<svg xmlns="http://www.w3.org/2000/svg" viewBox="0 0 72.58 79.78">
  <polygon points="0 0 72.58 0 66.28 71.39 36.29 79.78 6.6 71.98 0 0" fill="#57883f"/>
  <polygon points="35.29 5.6 64.88 5.6 59.68 65.58 35.29 72.38 35.29 5.6" fill="#72b152"/>
  <path d="M15.81,30.26a4.66,4.66,0,0,0,.76-1.44,8.58,8.58,0,0,0,.37-2.28c.08-1.66.13-2.79.13-3.38a2.79,2.79,0,0,1,.2-1.24,1.37,1.37,0,0,1,.66-.54,6.91,6.91,0,0,1,2-.18V17.82H19.2a10.59,10.59,0,0,0-2.72.25,4.67,4.67,0,0,0-1.94,1,3.56,3.56,0,0,0-.92,1.74,19.6,19.6,0,0,0-.25,3.84,15.63,15.63,0,0,1-.12,2.36,3.89,3.89,0,0,1-.52,1.51,2.32,2.32,0,0,1-.91.86,4.3,4.3,0,0,1-1.56.31v3.4a3.48,3.48,0,0,1,1.93.56,3,3,0,0,1,1,1.62,15.44,15.44,0,0,1,.23,3.39A16.05,16.05,0,0,0,13.61,42a3.56,3.56,0,0,0,.94,1.75,4,4,0,0,0,1.72,1,10.51,10.51,0,0,0,2.93.31H20v-3.4a6.68,6.68,0,0,1-2-.19,1.55,1.55,0,0,1-.69-.56,2.72,2.72,0,0,1-.22-1.31c0-.43,0-1.43-.1-3a10.87,10.87,0,0,0-.37-2.47,4.61,4.61,0,0,0-.81-1.56,4.85,4.85,0,0,0-1.37-1.13A6.14,6.14,0,0,0,15.81,30.26Z" fill="#f3f4f5"/>
  <path d="M56.66,27.55a16.78,16.78,0,0,1-.21-3.39,15.27,15.27,0,0,0-.25-3.28,3.72,3.72,0,0,0-.94-1.76,4,4,0,0,0-1.72-1,11,11,0,0,0-2.93-.29h-.75V21.2a7,7,0,0,1,2.06.19,1.18,1.18,0,0,1,.64.55,3.81,3.81,0,0,1,.19,1.42A41.17,41.17,0,0,0,53,27.72a5.57,5.57,0,0,0,.91,2.38,5.92,5.92,0,0,0,1.52,1.33,4.78,4.78,0,0,0-1.32,1.09,4.91,4.91,0,0,0-.83,1.5,8.52,8.52,0,0,0-.38,2.36q-.12,2.43-.12,3.3a2.54,2.54,0,0,1-.23,1.22,1.45,1.45,0,0,1-.69.56,6.76,6.76,0,0,1-2,.18v3.41h.75a10.44,10.44,0,0,0,2.72-.26,4.59,4.59,0,0,0,2-1A3.46,3.46,0,0,0,56.2,42a19.6,19.6,0,0,0,.25-3.84,17.53,17.53,0,0,1,.11-2.35,4.07,4.07,0,0,1,.54-1.51,2.15,2.15,0,0,1,.89-.86,4.3,4.3,0,0,1,1.56-.31v-3.4a3.47,3.47,0,0,1-1.94-.56A3,3,0,0,1,56.66,27.55Z" fill="#f3f4f5"/>
  <path d="M25.35,43.26a2.62,2.62,0,1,1,5.22,0,2.62,2.62,0,1,1-5.22,0Zm7,0A2.62,2.62,0,1,1,34.92,46,2.64,2.64,0,0,1,32.31,43.26Zm7,0A2.62,2.62,0,1,1,41.88,46,2.64,2.64,0,0,1,39.27,43.26Z" fill="#f1f2f2"/>
</svg>
