<?xml version="1.0" encoding="utf-8"?>
<!-- Generator: Adobe Illustrator 23.0.3, SVG Export Plug-In . SVG Version: 6.00 Build 0)  -->
<svg version="1.1" id="Layer_1" xmlns="http://www.w3.org/2000/svg" xmlns:xlink="http://www.w3.org/1999/xlink" x="0px" y="0px"
	 viewBox="0 0 682 608.5" enable-background="new 0 0 682 608.5" xml:space="preserve">
<g>
	
		<image overflow="visible" opacity="0.35" width="588" height="118" xlink:href="51AD155DA7A4A08E.png"  transform="matrix(1 0 0 1 6 21)">
	</image>
	<g>
		<g>
			<rect x="17.4" y="31.2" fill="#969D9B" width="556" height="87.5"/>
			<g>
				<rect x="17" y="31.2" width="556.4" height="37"/>
			</g>
			<g>
				<g>
					<polygon fill="#FCDF15" points="29.4,42.8 24.4,47.7 30.4,53.6 40.3,53.6 					"/>
					<polygon fill="#FCDF15" points="30.4,53.6 37.4,61 47.3,61 47.3,60.8 40.3,53.6 					"/>
				</g>
				<g>
					<polygon fill="#D30E53" points="29.4,56.3 24.4,51.5 30.4,45.6 40.3,45.6 					"/>
					<polygon fill="#D30E53" points="30.4,45.6 37.4,38.2 47.2,38.2 47.2,38.4 40.3,45.6 					"/>
				</g>
				<g>
					<rect x="25.8" y="38.1" fill="#0B99BD" width="7" height="23"/>
					<rect x="24.1" y="38.1" fill="#0B99BD" width="2.1" height="23"/>
				</g>
			</g>
			<text transform="matrix(1 0 0 1 179.3441 54.1051)"><tspan x="0" y="0" fill="#FFFFFF" font-family="'SourceSansPro-Light'" font-size="12px">Welcome to </tspan><tspan x="60.2" y="0" fill="#FCDF15" font-family="'SourceSansPro-Light'" font-size="12px">Marcin</tspan><tspan x="92.9" y="0" fill="#FFFFFF" font-family="'SourceSansPro-Light'" font-size="12px"> from </tspan><tspan x="120.8" y="0" fill="#FCDF15" font-family="'SourceSansPro-Light'" font-size="12px">Bergen school A2</tspan></text>
			<text transform="matrix(1 0 0 1 61.5158 54.1051)" fill="#FFFFFF" font-family="'OpenSans-Semibold'" font-size="12px">Kartleggeren</text>
		</g>
	</g>
</g>
<g>
	
		<image overflow="visible" opacity="0.35" width="587" height="119" xlink:href="51AD155DA7A4A089.png"  transform="matrix(1 0 0 1 22 96)">
	</image>
	<g>
		<g>
			<rect x="32.8" y="106.8" fill="#969D9B" width="556" height="87.5"/>
			<g>
				<rect x="32.3" y="106.8" width="556.4" height="37"/>
			</g>
			<text transform="matrix(1 0 0 1 194.6899 129.7032)"><tspan x="0" y="0" fill="#FFFFFF" font-family="'SourceSansPro-Light'" font-size="12px">Welcome to </tspan><tspan x="60.2" y="0" fill="#FCDF15" font-family="'SourceSansPro-Light'" font-size="12px">Marcin</tspan><tspan x="92.9" y="0" fill="#FFFFFF" font-family="'SourceSansPro-Light'" font-size="12px"> from </tspan><tspan x="120.8" y="0" fill="#FCDF15" font-family="'SourceSansPro-Light'" font-size="12px">Bergen school A2</tspan></text>
			<text transform="matrix(1 0 0 1 76.8616 129.7032)" fill="#FFFFFF" font-family="'OpenSans-Semibold'" font-size="12px">Kartleggeren</text>
			<polyline fill="none" stroke="#FFFFFF" stroke-width="2" points="44.2,123.8 53.9,131.4 66.3,119.1 			"/>
			<circle fill="#FCDF15" cx="44.2" cy="123.8" r="3.5"/>
			<circle fill="#D30E53" cx="53.9" cy="130.5" r="3.5"/>
			<circle fill="#0B99BD" cx="65.7" cy="119.6" r="3.5"/>
		</g>
	</g>
</g>
<g>
	
		<image overflow="visible" opacity="0.35" width="588" height="118" xlink:href="51AD155DA7A4A088.png"  transform="matrix(1 0 0 1 37 172)">
	</image>
	<g>
		<g>
			<rect x="48.1" y="182.4" fill="#969D9B" width="556" height="87.5"/>
			<g>
				<rect x="47.7" y="182.4" width="556.4" height="37"/>
			</g>
			<text transform="matrix(1 0 0 1 92.2074 205.3015)" fill="#FFFFFF" font-family="'OpenSans-Semibold'" font-size="12px">Kartleggeren</text>
			<circle fill="#0B99BD" cx="69.5" cy="200.9" r="10.9"/>
			<path d="M84,205.5l-15-5l-0.2,14.7C75.3,215.2,81.7,210.9,84,205.5z"/>
			<circle cx="69.5" cy="200.9" r="7"/>
			<path fill="#FCDF15" d="M80.6,206.5l-9.9-4v10.7C75.2,213.1,79,210.4,80.6,206.5z"/>
			<text transform="matrix(1 0 0 1 210.0357 205.8128)"><tspan x="0" y="0" fill="#FFFFFF" font-family="'SourceSansPro-Light'" font-size="12px">Welcome to </tspan><tspan x="60.2" y="0" fill="#FCDF15" font-family="'SourceSansPro-Light'" font-size="12px">Marcin</tspan><tspan x="92.9" y="0" fill="#FFFFFF" font-family="'SourceSansPro-Light'" font-size="12px"> from </tspan><tspan x="120.8" y="0" fill="#FCDF15" font-family="'SourceSansPro-Light'" font-size="12px">Bergen school A2</tspan></text>
		</g>
	</g>
</g>
<g>
	
		<image overflow="visible" opacity="0.35" width="587" height="119" xlink:href="51AD155DA7A4A087.png"  transform="matrix(1 0 0 1 53 247)">
	</image>
	<g>
		<g>
			<rect x="63.5" y="258" fill="#969D9B" width="556" height="87.5"/>
			<g>
				<rect x="63" y="258" width="556.4" height="37"/>
			</g>
			<text transform="matrix(1 0 0 1 107.5532 280.8997)" fill="#FFFFFF" font-family="'OpenSans-Semibold'" font-size="12px">Kartleggeren</text>
			<rect x="79.4" y="274.5" fill="#FCDF15" width="4.9" height="4.6"/>
			<rect x="86.3" y="271.3" fill="#FCDF15" width="4.9" height="7.8"/>
			<rect x="93.1" y="267" fill="#FCDF15" width="4.9" height="12.1"/>
			<rect x="79.4" y="281.9" fill="#0B99BD" width="18.6" height="4"/>
			<text transform="matrix(1 0 0 1 225.3815 279.1158)"><tspan x="0" y="0" fill="#FFFFFF" font-family="'SourceSansPro-Light'" font-size="12px">Welcome to </tspan><tspan x="60.2" y="0" fill="#FCDF15" font-family="'SourceSansPro-Light'" font-size="12px">Marcin</tspan><tspan x="92.9" y="0" fill="#FFFFFF" font-family="'SourceSansPro-Light'" font-size="12px"> from </tspan><tspan x="120.8" y="0" fill="#FCDF15" font-family="'SourceSansPro-Light'" font-size="12px">Bergen school A2</tspan></text>
		</g>
	</g>
</g>
<g>
	
		<image overflow="visible" opacity="0.35" width="587" height="119" xlink:href="51AD155DA7A4A096.png"  transform="matrix(1 0 0 1 68 323)">
	</image>
	<g>
		<g>
			<rect x="78.4" y="333.5" fill="#969D9B" width="556" height="87.5"/>
			<g>
				<rect x="78.4" y="333.5" width="556.4" height="37"/>
			</g>
			<text transform="matrix(1 0 0 1 122.899 356.4978)" fill="#FFFFFF" font-family="'OpenSans-Semibold'" font-size="12px">Kartleggeren</text>
			<path fill="#FCDF15" d="M103.9,355.4c0,2.6-2.1,4.7-4.7,4.7c-2.6,0-4.7-2.1-4.7-4.7c0-2.6,2.1-4.7,4.7-4.7v-2.1
				c-3.8,0-6.9,3.1-6.9,6.9c0,3.8,3.1,6.9,6.9,6.9c3.8,0,6.9-3.1,6.9-6.9v0L103.9,355.4L103.9,355.4z"/>
			<path fill="#0B99BD" d="M102.4,348.7c0-2.6,2.1-4.7,4.7-4.7c2.6,0,4.7,2.1,4.7,4.7c0,2.6-2.1,4.7-4.7,4.7v2.1
				c3.8,0,6.9-3.1,6.9-6.9c0-3.8-3.1-6.9-6.9-6.9c-3.8,0-6.9,3.1-6.9,6.9v0L102.4,348.7L102.4,348.7z"/>
			<text transform="matrix(1 0 0 1 240.7273 356.4977)"><tspan x="0" y="0" fill="#FFFFFF" font-family="'SourceSansPro-Light'" font-size="12px">Welcome to </tspan><tspan x="60.2" y="0" fill="#FCDF15" font-family="'SourceSansPro-Light'" font-size="12px">Marcin</tspan><tspan x="92.9" y="0" fill="#FFFFFF" font-family="'SourceSansPro-Light'" font-size="12px"> from </tspan><tspan x="120.8" y="0" fill="#FCDF15" font-family="'SourceSansPro-Light'" font-size="12px">Bergen school A2</tspan></text>
		</g>
	</g>
</g>
<g>
	
		<image overflow="visible" opacity="0.35" width="588" height="118" xlink:href="51AD155DA7A4A099.png"  transform="matrix(1 0 0 1 83 399)">
	</image>
	<g>
		<g>
			<rect x="93.7" y="409.1" fill="#969D9B" width="556" height="87.5"/>
			<g>
				<rect x="93.7" y="409.1" width="556.4" height="37"/>
			</g>
			<text transform="matrix(1 0 0 1 138.2448 432.096)" fill="#FFFFFF" font-family="'OpenSans-Semibold'" font-size="12px">Kartleggeren</text>
			<path fill="#D30E53" d="M118.4,434.6c-0.6,0.1-1.4,0.2-2.1,0.2c-5.1,0-9.2-4.1-9.2-9.2s4.1-9.2,9.2-9.2c0.8,0,1.6,0.1,2.4,0.3
				l-3.9,9"/>
			<path fill="#FCDF15" d="M120,417.2l-3.1,7.6h8.2C125.2,421.4,123.1,418.5,120,417.2z"/>
			<path fill="#0B99BD" d="M125.2,426.4l-8.2,0l3.1,7.6C123.3,432.8,125.2,429.7,125.2,426.4z"/>
			<text transform="matrix(1 0 0 1 256.0731 432.0961)"><tspan x="0" y="0" fill="#FFFFFF" font-family="'SourceSansPro-Light'" font-size="12px">Welcome to </tspan><tspan x="60.2" y="0" fill="#FCDF15" font-family="'SourceSansPro-Light'" font-size="12px">Marcin</tspan><tspan x="92.9" y="0" fill="#FFFFFF" font-family="'SourceSansPro-Light'" font-size="12px"> from </tspan><tspan x="120.8" y="0" fill="#FCDF15" font-family="'SourceSansPro-Light'" font-size="12px">Bergen school A2</tspan></text>
		</g>
	</g>
</g>
<g>
	
		<image overflow="visible" opacity="0.35" width="587" height="119" xlink:href="51AD155DA7A4A09B.png"  transform="matrix(1 0 0 1 99 474)">
	</image>
	<g>
		<g>
			<rect x="109.1" y="484.7" fill="#969D9B" width="556" height="87.5"/>
			<g>
				<rect x="109.1" y="484.7" width="556.4" height="37"/>
			</g>
			<text transform="matrix(1 0 0 1 153.5906 507.6942)" fill="#FFFFFF" font-family="'OpenSans-Semibold'" font-size="12px">Kartleggeren</text>
			<g>
				<rect x="119.5" y="507.2" fill="#FCDF15" width="5" height="5"/>
				<rect x="126.2" y="507.2" fill="#D30E53" width="5" height="5"/>
				<rect x="126.2" y="500.8" fill="#D30E53" width="5" height="5"/>
				<rect x="133" y="507.2" fill="#0B99BD" width="5" height="5"/>
				<rect x="133" y="500.8" fill="#0B99BD" width="5" height="5"/>
				<rect x="133" y="494.3" fill="#0B99BD" width="5" height="5"/>
			</g>
			<text transform="matrix(1 0 0 1 271.4189 507.694)"><tspan x="0" y="0" fill="#FFFFFF" font-family="'SourceSansPro-Light'" font-size="12px">Welcome to </tspan><tspan x="60.2" y="0" fill="#FCDF15" font-family="'SourceSansPro-Light'" font-size="12px">Marcin</tspan><tspan x="92.9" y="0" fill="#FFFFFF" font-family="'SourceSansPro-Light'" font-size="12px"> from </tspan><tspan x="120.8" y="0" fill="#FCDF15" font-family="'SourceSansPro-Light'" font-size="12px">Bergen school A2</tspan></text>
		</g>
	</g>
</g>
</svg>
